<svg width="800" height="600" viewBox="0 0 800 600" fill="none" xmlns="http://www.w3.org/2000/svg">
  <defs>
    <linearGradient id="bg" x1="0" y1="0" x2="1" y2="1">
      <stop offset="0%" stop-color="#F8FAFC" />
      <stop offset="100%" stop-color="#E2E8F0" />
    </linearGradient>
  </defs>
  <rect width="800" height="600" rx="48" fill="url(#bg)" />
  <rect x="120" y="160" width="560" height="280" rx="140" fill="#CBD5F5" />
  <path d="M190 330c95 10 175 10 270-30 70-30 120-10 150 30 15 20 5 50-20 60-150 60-320 70-430 15-20-10-25-50 30-75z" fill="#64748B" />
  <path d="M220 300c60 15 140 10 210-15" stroke="#F1F5F9" stroke-width="14" stroke-linecap="round" />
  <circle cx="250" cy="360" r="10" fill="#F1F5F9" />
  <circle cx="290" cy="365" r="8" fill="#F1F5F9" />
  <circle cx="330" cy="370" r="6" fill="#F1F5F9" />
  <text x="400" y="470" text-anchor="middle" font-family="Arial, sans-serif" font-size="24" fill="#475569" font-weight="700">Shoe Placeholder</text>
</svg>
